<svg version="1.2" xmlns="http://www.w3.org/2000/svg" viewBox="0 0 150 150" width="150" height="150">
	<title>8674986_ic_fluent_home_regular_icon</title>
	<style>
		.s0 { fill: #ffffff } 
	</style>
	<path class="s0" d="m65.9 15.8c5.3-4.4 12.9-4.4 18.2 0l42.2 35.6c3.1 2.7 4.9 6.6 4.9 10.8v61.2c0 6.1-4.8 11-10.9 11h-21.9c-6 0-10.9-4.9-10.9-11v-34.4c0-0.8-0.7-1.5-1.6-1.5h-21.8c-0.9 0-1.6 0.7-1.6 1.5v34.4c0 6.1-4.9 11-10.9 11h-21.9c-6.1 0-11-4.9-11-11v-61.2c0-4.2 1.9-8.1 5-10.8zm12.1 7.2c-1.7-1.5-4.3-1.5-6 0l-42.2 35.5c-1.1 0.9-1.7 2.2-1.7 3.6v61.3c0 0.9 0.7 1.6 1.6 1.6h21.9c0.8 0 1.5-0.7 1.5-1.6v-34.4c0-6 4.9-10.9 11-10.9h21.9c6 0 10.9 4.9 10.9 10.9v34.4c0 0.9 0.7 1.6 1.6 1.6h21.8c0.9 0 1.6-0.7 1.6-1.6v-61.3c0-1.4-0.6-2.7-1.7-3.6z"/>
</svg>